<svg width="1208" height="1208" viewBox="0 0 1208 1208" fill="none" xmlns="http://www.w3.org/2000/svg">
<path d="M151 153.517C119.844 185.327 100.667 228.815 100.667 276.833V830.5C100.667 877.222 119.227 922.031 152.265 955.069C185.302 988.106 230.111 1006.67 276.833 1006.67H629.871C632.438 993.983 637.119 981.5 643.965 969.621L680.708 906H276.833C256.81 906 237.606 898.045 223.447 883.886C209.288 869.727 201.333 850.524 201.333 830.5V352.333H906V415.451C938.198 403.81 972.611 399.595 1006.67 403.12V276.833C1006.67 228.815 987.49 185.327 956.333 153.517V151H953.817C920.915 118.68 876.62 100.601 830.5 100.667H276.833C228.815 100.667 185.327 119.844 153.517 151H151V153.517ZM967.004 453C983.136 451.51 999.396 452.256 1015.32 455.215L932.224 599.067C928.078 605.754 925.318 613.205 924.107 620.979C922.897 628.753 923.26 636.69 925.176 644.321C927.091 651.952 930.52 659.12 935.259 665.4C939.998 671.68 945.951 676.944 952.763 680.88C959.575 684.815 967.109 687.342 974.916 688.311C982.724 689.279 990.647 688.669 998.214 686.517C1005.78 684.365 1012.84 680.715 1018.97 675.783C1025.1 670.851 1030.18 664.738 1033.9 657.806L1117 513.903C1139.76 540.528 1154.07 573.333 1158.11 608.13C1162.14 642.926 1155.71 678.135 1139.64 709.261C1123.57 740.386 1098.59 766.016 1067.88 782.877C1037.18 799.738 1002.14 807.066 967.256 803.924L814.695 1068.17C804.964 1085.04 788.93 1097.35 770.123 1102.4C751.315 1107.44 731.273 1104.81 714.406 1095.08C697.539 1085.35 685.229 1069.31 680.184 1050.5C675.139 1031.7 677.771 1011.65 687.503 994.788L839.812 731.041C821.739 705.818 810.65 676.268 807.665 645.382C804.68 614.496 809.907 583.37 822.815 555.153C835.723 526.935 855.856 502.628 881.175 484.69C906.494 466.752 936.103 455.82 967.004 453ZM518.534 465.231C521.89 468.882 524.493 473.159 526.196 477.817C527.898 482.475 528.666 487.422 528.456 492.377C528.245 497.332 527.061 502.196 524.97 506.693C522.879 511.19 519.922 515.231 516.269 518.584L395.62 629.167L516.269 739.749C523.651 746.517 528.042 755.94 528.476 765.946C528.911 775.952 525.352 785.72 518.584 793.102C511.816 800.484 502.393 804.876 492.387 805.31C482.382 805.744 472.613 802.186 465.231 795.418L314.231 657.001C310.371 653.464 307.289 649.164 305.18 644.372C303.071 639.58 301.982 634.402 301.982 629.167C301.982 623.931 303.071 618.753 305.18 613.961C307.289 609.17 310.371 604.869 314.231 601.332L465.231 462.916C468.886 459.563 473.165 456.963 477.824 455.265C482.484 453.567 487.433 452.803 492.387 453.018C497.342 453.234 502.206 454.423 506.701 456.518C511.196 458.614 515.234 461.574 518.584 465.231H518.534ZM667.269 795.418L768.942 702.2C752.571 654.772 752.429 603.248 768.54 555.73L667.269 462.916C663.614 459.564 659.334 456.966 654.675 455.269C650.015 453.571 645.067 452.808 640.113 453.023C635.159 453.238 630.295 454.427 625.8 456.522C621.305 458.616 617.267 461.576 613.916 465.231C610.564 468.886 607.966 473.166 606.269 477.825C604.571 482.485 603.808 487.433 604.023 492.387C604.238 497.341 605.427 502.205 607.522 506.7C609.616 511.195 612.576 515.233 616.231 518.584L736.88 629.167L616.231 739.749C608.849 746.517 604.458 755.94 604.023 765.946C603.589 775.952 607.148 785.72 613.916 793.102C620.684 800.484 630.107 804.876 640.113 805.31C650.119 805.744 659.887 802.186 667.269 795.418Z" fill="url(#paint0_linear_1_2)"/>
<defs>
<linearGradient id="paint0_linear_1_2" x1="629.972" y1="100.666" x2="629.972" y2="1104.9" gradientUnits="userSpaceOnUse">
<stop stop-color="#FFC148"/>
<stop offset="1" stop-color="#FF6C6C"/>
</linearGradient>
</defs>
</svg>
